# xmcd
#
# Track frame offsets: 
#        150
#        11482
#        29150
#        41122
#        55926
#        69530
#        88657
#        102265
#        115035
#        128001
#        141024
#        152797
#        166318
#        178243
#        190344
#        201356
#        216730
#        228540
#        247509
#        261377
#        280862
#        293080
#        309446
#
# Disc length: 4348 seconds
#
# Revision: 0
# Processed by: cddbd v1.5.2PL0 Copyright (c) Steve Scherf et al.
# Submitted via: ExactAudioCopyFreeDBPlugin 1.0
#
DISCID=5910fa17
DTITLE=Phil Sampson - Little Pieces of his Heart
DYEAR=2004
DGENRE=Country
TTITLE0=I Don't Need You Now
TTITLE1=When I See the Wichitas
TTITLE2=Fraidy Hole
TTITLE3=Little Girl in the Mirror
TTITLE4=Lily of Houston
TTITLE5=You Have Love in Your Eyes
TTITLE6=Just a Little Justice
TTITLE7=One of the Many
TTITLE8=Somewhere Else and Doin' Worse
TTITLE9=I Wish You Could Love Me Again
TTITLE10=Christian's Song
TTITLE11=Rock, Roll and Rebellion
TTITLE12=April May
TTITLE13=Lucky Lady Linda
TTITLE14=Don't Be Afraid of My Love
TTITLE15=Something Special
TTITLE16=I'd Love To See Your Face Again
TTITLE17=Little Pieces of His Heart
TTITLE18=Mary Anne
TTITLE19=That's the Way I've Always Thought Love Should Be
TTITLE20=Say It Again
TTITLE21=Grampa Armstrong
TTITLE22=The Night the Animals Spoke
EXTD=
EXTT0=
EXTT1=
EXTT2=
EXTT3=
EXTT4=
EXTT5=
EXTT6=
EXTT7=
EXTT8=
EXTT9=
EXTT10=
EXTT11=
EXTT12=
EXTT13=
EXTT14=
EXTT15=
EXTT16=
EXTT17=
EXTT18=
EXTT19=
EXTT20=
EXTT21=
EXTT22=
PLAYORDER=
